# xmcd
#
# Track frame offsets:
#	150
#	21472
#	45145
#	66455
#	77882
#	95045
#	122495
#	135322
#	155792
#	177457
#	188217
#	206235
#	231445
#	244280
#	259067
#
# Disc length: 3730
#
# Revision: 1
# Processed by: cddbd v1.5.1PL0 Copyright (c) Steve Scherf et al.
# Submitted via: ExactAudioCopy v0.95a4
# Normalized: r0:TDELIM( - )
#
DISCID=dd0e900f
DTITLE=Various Artist - Blues Guitar Blasters
DYEAR=1900
DGENRE=Blues
TTITLE0=Albert Collins - Frosty
TTITLE1=Muddy waters - Long Distance Call
TTITLE2=Jimi Hendrix - Red House
TTITLE3=Eric Clapton - Snake Drive
TTITLE4=John Lee Hooker - Roll Your Dady Right
TTITLE5=Lefty Diz - Bad Avenue
TTITLE6=Eric Clapton - Jimmy Page - Freight Loader
TTITLE7=Buddy Guy - She Suits Me To A T
TTITLE8=Jimmy Dawkins - Feel The Blues
TTITLE9=Jeff Beck - Chuckles
TTITLE10=John Mayall and The Bluesbreakers - Telephone Blues
TTITLE11=Phil Guy - Tina Nu
TTITLE12=J.B. Hutto - Speak My Mind
TTITLE13=Lightnin' Hopkins - Come On Baby
TTITLE14=Louisiana Red - Gonna Move On Down The Line.
EXTD=
EXTT0=
EXTT1=
EXTT2=
EXTT3=
EXTT4=
EXTT5=
EXTT6=
EXTT7=
EXTT8=
EXTT9=
EXTT10=
EXTT11=
EXTT12=
EXTT13=
EXTT14=
PLAYORDER=
